# xmcd CD database file
#
# Track frame offsets:
#	150
#	1410
#	16030
#	17457
#	47100
#	48010
#	56235
#	57080
#	67875
#	69172
#	84867
#	86332
#	113400
#	114410
#	147707
#	148440
#	159297
#	160155
#	168877
#	170175
#	190697
#	191587
#	201152
#	202305
#	205740
#	206245
#	224527
#	225050
#	235150
#	235980
#	246632
#	247480
#	265327
#	266265
#	283040
#	285322
#	309010
#	310890
#
# Disc length: 4281 seconds
#
# Revision: 0
# Processed by: cddbd v1.4PL0 Copyright (c) Steve Scherf et al.
# Submitted via: CDex 1.50
#
DISCID=1c10b726
DTITLE=Various Artist - Born Under The Sign Of Jazz
DYEAR=1998
DGENRE=Jazz
TTITLE0=Intro from Randi
TTITLE1=Jeepers Creepers - Sonny Clark (1954)
TTITLE2=Comment from Randi
TTITLE3=Jam - Basie Musicians - Ernie Wilkins, Joe Newman, Eddie Jones, Freddy Green, Plus Anthony Ortega, Tor Hultin (1954)
TTITLE4=Comment from Randi
TTITLE5=Interview - Ernie Wilkins (1974)
TTITLE6=Comment from Randi
TTITLE7=Solo from Bjarne Nerem - Basie Jam (1956)
TTITLE8=Comment from Randi
TTITLE9=Stuff Smith (1956)
TTITLE10=Comment from Randi
TTITLE11=Zoot Sims, Einar Iverson, Roy Burns, Knut Ljung, Mikkel Flagstad
TTITLE12=Comment from Randi
TTITLE13=Hampton Hawes (1967)
TTITLE14=Comment from Randi
TTITLE15=Interview - Bill Evans
TTITLE16=Comment from Randi
TTITLE17=Phil Woods (1968)
TTITLE18=Comment from Randi
TTITLE19=Randi's Rag for Eubie - Morten Gunnar Larsen
TTITLE20=Comment from Randi
TTITLE21=Fairweather - Kenny Dorham
TTITLE22=Comment from Randi
TTITLE23=Kors I Taket - Jan Johansson (comp: Osten Hedenbratt)
TTITLE24=Comment from Randi
TTITLE25=Tenderly - Reinhold Svensson
TTITLE26=Comment from Randi
TTITLE27=Jan Johansson
TTITLE28=Comment from Randi
TTITLE29=Finn Enger Plays Accordion for Paul Gonsalves
TTITLE30=Comment from Randi
TTITLE31=Oslo To Kristiansund To Molde - Jaki Byard
TTITLE32=Comment from Randi
TTITLE33=I can't Give You Anything But Love - Monica Zetterlund with Lasse Bagge, Carl Morten Iversen, Ole Jacob Hansen
TTITLE34=Comment from Randi
TTITLE35=Ballad For Stan - Bodil Niska, Einar Iversen
TTITLE36=Comment from Randi
TTITLE37=Randi - Phil Woods composing on piano and alto
EXTD=YEAR: 1998
EXTT0=
EXTT1=
EXTT2=
EXTT3=
EXTT4=
EXTT5=
EXTT6=
EXTT7=
EXTT8=
EXTT9=
EXTT10=
EXTT11=
EXTT12=
EXTT13=
EXTT14=
EXTT15=
EXTT16=
EXTT17=
EXTT18=
EXTT19=
EXTT20=
EXTT21=
EXTT22=
EXTT23=
EXTT24=
EXTT25=
EXTT26=
EXTT27=
EXTT28=
EXTT29=
EXTT30=
EXTT31=
EXTT32=
EXTT33=
EXTT34=
EXTT35=
EXTT36=
EXTT37=
PLAYORDER=
